<mxfile host="app.diagrams.net" modified="2024-05-16T07:59:16.756Z" agent="Mozilla/5.0 (Macintosh; Intel Mac OS X 10_15_7) AppleWebKit/537.36 (KHTML, like Gecko) Chrome/124.0.0.0 Safari/537.36" version="24.4.2" etag="Zc5fuw-vRQaof-32V7Wh" type="github">
  <diagram name="第 1 页" id="jFb53ws4hK_i0EOxIGxJ">
    <mxGraphModel>
      <root>
        <mxCell id="0" />
        <mxCell id="1" parent="0" />
      </root>
    </mxGraphModel>
  </diagram>
</mxfile>
